<svg xmlns="http://www.w3.org/2000/svg" xmlns:xlink="http://www.w3.org/1999/xlink" width="512" zoomAndPan="magnify" viewBox="0 0 384 383.999986" height="512" preserveAspectRatio="xMidYMid meet" version="1.0"><path fill="#3185fc" d="M 310.320312 327.363281 L 80.550781 331.488281 C 75.808594 331.582031 71.964844 327.757812 72.117188 323.128906 L 79.933594 61.148438 C 80.066406 56.816406 83.644531 53.332031 88.070312 53.257812 L 292.394531 49.582031 C 296.820312 49.507812 300.53125 52.84375 300.8125 57.175781 L 318.417969 318.683594 C 318.757812 323.332031 315.042969 327.269531 310.320312 327.363281 Z M 310.320312 327.363281 " fill-opacity="1" fill-rule="evenodd"/><path fill="#070f22" d="M 310.507812 325.191406 L 85.238281 325.191406 C 80.589844 325.191406 76.894531 321.382812 77.121094 316.847656 L 89.589844 60.25 C 89.796875 55.992188 93.375 52.65625 97.707031 52.65625 L 298.019531 52.65625 C 302.351562 52.65625 305.933594 55.992188 306.140625 60.25 L 318.605469 316.847656 C 318.832031 321.382812 315.136719 325.191406 310.507812 325.191406 Z M 310.507812 325.191406 " fill-opacity="1" fill-rule="evenodd"/><path fill="#3185fc" d="M 197.863281 185.042969 C 160.105469 185.042969 128.886719 156.976562 124.820312 120.996094 C 124.332031 116.738281 127.6875 113.007812 132.054688 113.007812 C 135.785156 113.007812 138.878906 115.785156 139.292969 119.421875 C 142.574219 148.257812 167.601562 170.753906 197.863281 170.753906 C 228.125 170.753906 253.15625 148.257812 256.417969 119.421875 C 256.828125 115.785156 259.921875 113.007812 263.652344 113.007812 C 268.023438 113.007812 271.378906 116.738281 270.890625 120.996094 C 266.839844 156.957031 235.644531 185.042969 197.863281 185.042969 Z M 197.863281 185.042969 " fill-opacity="1" fill-rule="nonzero"/></svg>